<?xml version="1.0" encoding="UTF-8" standalone="no"?>
<svg width="57px" height="31px" viewBox="0 0 57 31" version="1.1" xmlns="http://www.w3.org/2000/svg" xmlns:xlink="http://www.w3.org/1999/xlink">
    <!-- Generator: Sketch 3.7.2 (28276) - http://www.bohemiancoding.com/sketch -->
    <title>voetbalprimeur.nl</title>
    <desc>Created with Sketch.</desc>
    <defs></defs>
    <g id="Design-V1" stroke="none" stroke-width="1" fill="none" fill-rule="evenodd">
        <g id="Clubpagina-V1" transform="translate(-60.000000, -25.000000)" fill="#FFFFFF">
            <g id="voetbalprimeur.nl" transform="translate(60.000000, 25.000000)">
                <g id="Layer_1">
                    <g id="Group">
                        <g id="Shape">
                            <path d="M37.9826349,25.605992 C38.5917951,22.1900144 39.2017547,18.7682222 39.8205817,15.2989677 C39.9683472,15.2989677 40.1087717,15.3017297 40.2490508,15.2984589 C41.1800533,15.2768719 42.1173793,15.3132136 43.0402412,15.2146549 C43.9023398,15.1224195 44.5657218,14.6218485 44.9829976,13.8463159 C45.7416676,12.4367655 44.9703507,11.0503284 43.3716052,10.9918182 C42.2586032,10.9510427 41.1429847,10.9876025 40.0287472,10.9756824 C39.7898366,10.9731385 39.7506602,11.1097108 39.7201332,11.2863316 C39.3309132,13.5378473 38.9443099,15.7896538 38.5510923,18.0404427 C37.8888733,21.8296498 37.2222205,25.6178394 36.5568034,29.406465 C36.5133387,29.6541703 36.4659491,29.9013667 36.417978,30.1623004 L25.3123078,30.1623004 C25.4001821,29.6389794 25.4812968,29.1317942 25.5709882,28.6261353 C25.7801712,27.4469915 25.9890635,26.2677749 26.2086403,25.0905935 C26.2502879,24.8674553 26.3231167,24.6458434 26.412372,24.4365877 C29.3680452,17.5076729 32.3277159,10.5802844 35.2860057,3.65260519 C35.3420446,3.52162959 35.3924869,3.38840079 35.3755517,3.21148924 C35.3064297,3.32204079 35.2324379,3.42975769 35.1686945,3.54321658 C32.5612479,8.18521882 29.9567086,12.8288201 27.3475902,17.4698048 C25.0052928,21.6361664 22.6576895,25.7996207 20.3159736,29.9664911 C20.2156705,30.144929 20.1267059,30.2599143 19.883507,30.2594055 C15.4500336,30.2500293 11.0164876,30.2525733 6.5830142,30.2519918 C6.51127562,30.2519918 6.43946435,30.2450142 6.32004542,30.2389088 C4.21774885,20.2708802 2.11479813,10.2996535 0,0.272460606 L0.444168661,0.272460606 C4.11453833,0.272460606 8.29805326,0.276022096 11.9683502,0.262430288 C11.9683502,0.262430288 11.9592648,0.239680363 12.0201736,0.548657777 C12.9902071,5.34126016 13.9795018,10.3056863 14.9634905,15.095454 C15.3649213,17.049767 15.7650438,19.0042981 16.1665472,20.9586838 C16.1905328,21.0754861 16.2215686,21.1907621 16.2515142,21.3158504 L16.8677246,21.3158504 C16.7719278,20.7795191 16.6824545,20.2640479 16.5873845,19.7498851 C16.4096734,18.7886463 16.2469352,17.8205752 16.0840515,16.8569378 C16.0565772,16.6942722 16.0689333,16.498681 16.1491759,16.3527326 C19.0408149,11.083472 21.9421935,5.81951737 24.8355769,0.551201698 C24.9509256,0.341146482 25.0832095,0.267590814 25.3197215,0.267736181 C32.1274003,0.273332808 38.9356605,0.233429585 45.7429032,0.290849523 C48.454578,0.313890182 50.9697893,1.08876861 53.0555141,2.93710915 C54.7692448,4.45590286 55.7754747,6.38056104 56.2011818,8.60794586 C57.3645533,14.6958403 54.0239486,21.3074191 47.9374351,24.1345152 C46.1355393,24.971538 44.2427892,25.5000195 42.257513,25.5932723 C40.846945,25.659487 39.4307803,25.605992 37.9826349,25.605992 L37.9826349,25.605992 Z"></path>
                        </g>
                    </g>
                </g>
            </g>
        </g>
    </g>
</svg>